<?xml version="1.0" encoding="utf-8"?>
<!-- Generator: Adobe Illustrator 22.1.0, SVG Export Plug-In . SVG Version: 6.00 Build 0)  -->
<svg version="1.1" xmlns="http://www.w3.org/2000/svg" xmlns:xlink="http://www.w3.org/1999/xlink" x="0px" y="0px"
	 viewBox="0 0 914.8 790.5" style="enable-background:new 0 0 914.8 790.5;" xml:space="preserve">
<style type="text/css">
	.st0{fill:#FFFFFF;}
	.st1{fill:#EC1C24;}
	.st2{fill:#231F20;}
</style>
<g id="white_fill">
	<path class="st0" d="M895.7,460.3c-0.1-3.1-1.9-5.5-3.5-7.4c-3.5-4.2-7.9-8.6-16.3-11.5c-8-2.8-30.7-9.6-45.6-13.3
		c-6.2-1.5-11.3-3.3-14.4-4.6c-1-0.4-2.2-0.3-3.2,0.2c-0.3,0.2-0.7,0.4-0.9,0.7c0.5-2.4,1.4-5.1,2.7-8.1
		c2.7-6.1,10.5-14.6,16.5-19.9c9-7.9,17.7-13.4,24.8-17.9c6-3.8,10.7-6.8,13.7-10c4-4.2,4.8-8.6,2.3-13.2c-2.2-4.1-6.7-6.1-13.4-6.1
		c-18.6,0-51.9,15.8-59.8,20c-11,5.9-25.2,11.7-37.8,15.7c-0.2-0.9-0.7-1.8-1.4-2.4c-3.2-2.4-12.8-2.4-12.9-2.4c-0.6,0-1.2,0-1.7,0
		c-4,0.2-9.5,1.4-14.3,2.5c0.1-1-0.5-11.6-0.9-13.4l-0.1-0.6c-0.1-0.4-0.2-0.8-0.3-1.2c-0.3-1.1-1.1-2-2.1-2.4
		c-1-0.4-2.2-0.4-3.2,0.1l-88.9,48.4c0,0,0,0,0,0L392.7,545.5c-1.1,0.6-1.8,1.7-1.9,2.9c-0.1,1.2,0.4,2.4,1.4,3.2
		c3,2.3,9,6.6,17.4,11.6c6.7,4,1.2,2.9,0.2,3.4c-0.6,0.3-1.1,0.7-1.4,1.2c-3.1,4.3-9.6,13-18.4,22.7c-6.2,6.9-15.5,14-23,19.2
		c-3.5,2.5-10.2,4.9-10.3,4.9l-0.1-0.1c-1.6-1.2-3.9-0.9-5.1,0.7c-1.2,1.6-0.9,3.9,0.7,5.1c0,0,0,0,0,0l0.1,0.1
		c0.3,0.2,0.6,0.4,0.9,0.7c0,0,0.1,0.1,0.1,0.1l0.5,0.4c0,0,0,0,0,0c0,0,0,0,0,0l0,0c0,0,0,0,0,0c0.3,0.3,0.7,0.4,1.1,0.6
		c0.2,0.3,0.5,0.6,0.9,0.9c20,14.5,42,25.7,65.4,33.4c24.2,7.9,49.4,12,75.1,12c26.7,0,52.9-4.3,77.9-12.9
		c24.2-8.3,46.8-20.3,67.2-35.8c20.2-15.3,37.8-33.7,52.3-54.5c14.7-21.1,25.8-44.3,33.1-68.9c0.3-1.1,0.1-2.3-0.5-3.2
		c-0.3-0.4-0.7-0.8-1.1-1c0.2,0,0.5,0,0.7,0c10.2,0,17.9-2.8,24.7-5.3c5.2-1.9,9.8-2.8,14.1-2.8c4.4,0,8.5,1,12.8,2.9
		c8.6,4,18.6,11.9,26.7,18.3c2.3,1.9,4.5,3.6,6.5,5.1c8.7,6.6,18.9,10.7,26.7,10.7c1.8,0,3.6-0.2,5.1-0.7c5-1.4,6.5-4.5,7-6.3
		c0.8-2.6,0.6-7-4.6-12.7c-2.5-2.8-7.4-7.4-12-11.9c-3.8-3.6-7.4-7-9.1-8.9c-1.5-1.6-3.8-4.6-6.4-8.5c-0.2-0.2-0.4-0.5-0.6-0.7
		c1-0.6,2.2-1.1,3.5-1.3c4.3-0.9,9.6-2,15.4-2c4.9,0,9.4,0.8,13.9,2.4c7.3,2.6,16.2,4.1,23.9,4.1c10.2,0,15.1-2.7,17.4-4.9
		C894.3,466.4,895.8,463.5,895.7,460.3z M646,287L320.9,464.1c-0.9,0.5-1.9,0.6-2.8,0.3c-0.9-0.3-1.7-0.9-2.2-1.8
		c-5.8-11-5.3-14.1-5.1-15.2c0-0.1,0.1-0.3,0.1-0.4c-10.9,0.7-26.9,3.5-42.2,12.6c-1.4,0.8-2.8,1.7-4.2,2.5
		c-17.4,10.4-33.9,20.2-49.4,25.5c-9,3.1-13.4,3.8-15.3,3.9c0,0-0.1,0-0.1,0l-0.1,0c-0.2,0-0.3,0-0.5,0c-0.3,0-0.7,0-1.1-0.1
		c-0.3-0.1-0.6-0.2-0.9-0.3c0,0-0.1,0-0.1-0.1c-0.1,4.6,1.8,8.3,4.1,12.2c4.4,7.5,4,12.3,3,15c-1.6,4.2-6.3,7-11.9,7
		c-3.8,0-9.7-1.2-16.5-6.9l-0.6-0.5c-3.9-3.3-7.1-6-10.9-11.7c-4.8-7.2-9.7-13-13.5-16c-0.8-0.7-1.7-1.4-2.6-2.1
		c-2.2-1.7-4.9-3.9-7.3-5.8c-0.7,1.2-2.1,1.9-3.6,1.9c-0.5,0-12.9-0.1-29.4-11.1c-10-6.6-15.1-9.8-18.4-11.7c0,0.4-0.1,0.8-0.2,1.2
		c-0.5,1.5-1.9,2.4-3.4,2.4c-3.2,0-9.4,0.2-14.2,1.5c-1.1,0.3-2.3,0.6-3.5,0.9c-4.8,1.3-10.2,2.7-14.6,2.7c-6,0-8.3-2.7-9.2-5.1
		c-2.8-7,5.9-17.5,11.6-21.4c4.4-3,9-6.1,9.9-8.8c0.2-0.6,0.2-1,0.2-1c0,0,0,0,0-0.1c-0.5-1.3-0.5-2.5,0.1-3.6
		c0.4-0.8,1.3-1.7,3.1-1.9c0.2,0,0.4,0,0.6,0c0.6,0,1.4,0.1,2.3,0.4c-3.1-1.5-7.3-2.9-13.1-4.3c-1.8-0.4-4.3-0.7-7.2-0.7
		c-4.5,0-9.5,0.5-13.1,0.9c-1.8,0.2-3.3,0.3-4.4,0.4c-0.7,0-1.3,0.1-1.9,0.1c-8.7,0-11.7-4.1-12.6-7.5c-0.8-2.9,0-5.7,2.3-8.3
		c1.7-1.9,4.1-3.7,7.3-5.9c1.1-0.8,2.4-1.8,3.7-2.8c6.8-5.2,13.8-9.2,18.3-11.8c1.9-1.1,3.5-2,4.4-2.6l6.5-4.4
		c0.7-0.5,1.4-0.7,2.2-0.6c0,0,0,0-0.1-0.1c-6.4-7.2-11.9-13-18.8-15.7c-14.3-5.6-20.2-8.9-21.8-12.3l-0.1-0.2
		c-0.7-1.5-2.7-5.5,0.1-9c3.3-4.1,12.5-4.5,16.4-4.5c5.7,0,14.6,0.9,25,4.9c13.3,5.2,31,12.9,50.6,26.3
		c11.5,7.8,20.7,12.9,28.8,17.4c4.7,2.6,9.1,5,13.5,7.7c6.7,4.1,13.8,6.8,19.2,8.2c-0.4-0.5-0.6-1.1-0.7-1.7
		c-0.2-1.2,0.3-2.5,1.3-3.3c3.1-2.6,12.1-10.1,29.7-23.7c20.3-15.8,29.2-24.6,35-30.4c1.6-1.6,3-3,4.3-4.2c3-2.8,6.2-7.2,9.6-11.9
		c5.1-7.1,10.9-15.1,17.7-19.6c7.8-5.2,18.2-11.9,23.7-15.5c0.7-0.4,1.4-0.6,2.1-0.6c-2.3-3.5-4.4-6.7-5.9-9.1
		c-6.7-9.9-16.9-33.1-12.9-56.7c4.4-25.9,29.9-51.6,43.6-65.5c0.9-0.9,1.7-1.7,2.4-2.4c11.7-11.8,19.2-23.7,27.8-43.7
		c4.9-11.3,9.4-19.9,14.3-27.2c5.7-8.5,12-15.3,19.3-20.8c13.3-10.1,39.8-14.5,52.6-15.8c-0.6-0.6-0.9-1.4-0.9-2.3
		c-0.1-1.2,0.5-2.4,1.5-3.1c1-0.7,23.6-17,45.7-21.9c4-0.9,7.7-1.3,11.1-1.3c8,0,14.5,2.6,19.3,7.7c4,4.2,6.2,9.5,7.9,13.6
		c3.6,8.7,9.1,15.9,15.4,20.5c0.6,0.4,1.2,0.8,1.7,1.1c0-0.2,0-0.3,0.1-0.5c0.2-1,0.8-1.9,1.7-2.4c0.3-0.2,3.3-1.9,7.7-2.6
		c4.3-0.7,6.5-1.2,8.2-2.2c0.8-0.5,1.7-0.7,2.6-0.7c1.9,0,3.6,1,4.8,2.8c1.9,2.7,2.3,6.8,1.1,10l-0.2,0.5c-1.5,4-4.1,10.7-17.1,14
		c-6.9,1.7-12.7,1.8-17.7,1.8c-4,0-7.5,0.1-10.8,0.9c-6.2,1.5-8.5,6.8-8.7,7.2c-0.4,1.1-1.4,1.9-2.5,2.2c-1.2,0.3-2.4,0-3.3-0.8
		c-0.1-0.1-1.4-1.2-3.1-2.9c1.7,2.9,3.6,6.1,5.8,9.3c5.9,8.9,6.6,16.6,3.9,41.3c-2.4,21.8-0.9,26.3,2.8,37.2
		c0.2,0.7,0.5,1.5,0.8,2.2c1.1,3.3,3.4,7.4,6.1,12.1c7,12.4,16.7,29.4,16.8,54c0,0.4,3.6,3.3,4.9,2.8c0.3-0.1,0.7-0.2,1-0.3
		c0.7-0.2,1.4-0.3,2.2-0.3c1.5-0.1,3-0.1,4.6-0.1c11.9,0,26.4,2.2,42,6.4c28.2,7.6,44.4,18.8,50.1,23.2c1,0.8,1.5,2,1.4,3.2
		C647.8,285.3,647.1,286.4,646,287z"/>
</g>
<g id="red_prohibitory_sign">
	<line class="st1" x1="531.2" y1="287.7" x2="531.6" y2="287.1"/>
	<path class="st1" d="M829.7,520.9c0.1-0.3,0.2-0.6,0.2-0.9c-6.2-1.6-13.1-5-19.2-9.7c-2-1.5-4.2-3.3-6.5-5.1
		c-8.1-6.4-18.1-14.4-26.7-18.3c-4.3-2-8.4-2.9-12.8-2.9c-4.3,0-8.9,0.9-14.1,2.8c-6.8,2.5-14.5,5.3-24.7,5.3c-0.2,0-0.3,0-0.5,0
		c-0.1,0-2.1,3.4-2.1,3.4c-29,97.9-119.6,169.2-226.9,169.2c-52.3,0-100.6-17-139.8-45.7c-0.2-0.1-0.3-0.2-0.5-0.3
		c-0.5-0.4-1.1-0.8-1.6-1.2c-0.1-0.1-0.2-0.1-0.3-0.2c-11.6-8.7-22.4-18.5-32.2-29.1l62.4-34l8.2-4.4l332.7-181.3
		c0.2,0.6,5.1,13.3,5,14.2c4.9-1.1,10.3-2.3,14.3-2.5c0.6,0,1.1,0,1.7,0c0.1,0,9.6,0,12.9,2.4c0.8,0.6,1.3,1.4,1.4,2.4
		c12.6-4,26.8-9.8,37.8-15.7c5.1-2.7,20.5-10.1,35.8-15.1c-0.1-0.5-0.2-0.9-0.3-1.4c-0.1-0.4-0.4-1.7-0.4-1.9
		C802.7,215.7,692.7,110.7,554.9,87.2c0,0,0,0,0,0c-3-0.5-6.1-1-9.1-1.4c-4.4,0.6-8.3,0.7-11.9,0.7c-4,0-7.5,0.1-10.8,0.9
		c-6.2,1.5-8.5,6.8-8.7,7.2c-0.4,1.1-1.4,1.9-2.5,2.2c-1.2,0.3-2.4,0-3.3-0.8c-0.1-0.1-1.4-1.2-3.1-2.9c1.7,2.9,3.6,6.1,5.8,9.3
		c5.9,8.9,6.6,16.6,3.9,41.3c-2.4,21.8-0.9,26.3,2.8,37.2c0.2,0.7,0.5,1.5,0.8,2.2c0.9,2.8,2.7,6.2,4.9,9.9c1.4,0.2,2.8,0.3,4.2,0.5
		c0,0,0,0,0,0l0,0c0,0,0,0,0,0c56.7,7.5,107.1,35.1,143.7,75.4L319.1,460.9l-8.3,4.5l-43.2,23.6c-1.9-7.1-3.4-14.3-4.6-21.6
		c0,0,0,0,0,0c-0.2-1.3-0.4-2.7-0.6-4c-16.6,9.9-32.4,19.1-47.2,24.3c-9,3.1-13.4,3.8-15.3,3.9c0,0-0.1,0-0.1,0l-0.1,0
		c-0.2,0-0.3,0-0.5,0c-0.3,0-0.7,0-1.1-0.1c-0.3-0.1-0.6-0.2-0.9-0.3c0,0-0.1,0-0.1-0.1c-0.1,4.6,1.8,8.3,4.1,12.2
		c4.4,7.5,4,12.3,3,15c-1.6,4.2-6.3,7-11.9,7c-3.8,0-9.7-1.2-16.5-6.9l-0.6-0.5c-3.9-3.3-7.1-6-10.9-11.7c-2.3-3.4-4.5-6.4-6.7-9
		c0.3,1.6,0.7,3.2,1,4.8c0,0,0,0,0,0C192.2,657.4,330.7,774,496.4,774c157.9,0,291.1-105.8,332.5-250.5
		C829.1,523,829.6,521.3,829.7,520.9z M152.8,388.3L152.8,388.3C152.8,388.3,152.8,388.3,152.8,388.3
		c14-122.1,91.6-224.9,198.8-274.4c1.6-0.7,3.1-1.4,4.7-2.1c-0.5,1.1-1,2.3-1.5,3.5c-8.6,20-16.2,31.8-27.8,43.7
		c-0.8,0.8-1.6,1.6-2.4,2.4c-13.7,13.8-39.2,39.6-43.6,65.5c-4,23.6,6.2,46.7,12.9,56.7c1.6,2.4,3.7,5.6,5.9,9.1
		c-0.7,0-1.5,0.2-2.1,0.6c-5.5,3.5-15.9,10.3-23.7,15.5c-6.8,4.5-12.6,12.6-17.7,19.6c-3.4,4.7-6.6,9.2-9.6,11.9
		c-1.3,1.2-2.7,2.6-4.3,4.2c-5.8,5.8-14.7,14.6-35,30.4c-17.7,13.7-26.7,21.2-29.7,23.7c-1,0.8-1.4,2.1-1.3,3.3
		c0.1,0.6,0.3,1.2,0.7,1.7c-5.4-1.4-12.6-4.1-19.2-8.2c-1.8-1.1-3.7-2.2-5.5-3.3C152.5,391,152.7,389.7,152.8,388.3
		C152.8,388.3,152.8,388.3,152.8,388.3z M842.2,430.6C842.2,430.6,842.2,430.6,842.2,430.6c0,0.2,0,0.4,0,0.6
		c-4.2-1.2-8.3-2.3-12-3.2c-6.2-1.5-11.3-3.3-14.4-4.6c-1-0.4-2.2-0.3-3.2,0.2c-0.3,0.2-0.7,0.4-0.9,0.7c0.5-2.4,1.4-5.1,2.7-8.1
		c2.7-6.1,10.5-14.6,16.5-19.9c3.1-2.7,6.1-5.1,9.1-7.3c0.1,1.1,0.2,2.2,0.3,3.3c0,0,0,0,0,0c1.2,11.7,1.8,23.6,1.8,35.7
		C842.2,429,842.2,429.8,842.2,430.6z M839.9,468.3c-0.1,1.2-0.3,2.3-0.4,3.5c0,0,0,0,0,0c-0.8,6.4-1.8,12.7-2.9,19c0,0,0,0,0,0
		c-0.1,0.6-0.2,1.3-0.3,1.9c-1.1-1-2.2-2.1-3.3-3.2c-3.8-3.6-7.4-7-9.1-8.9c-1.5-1.6-3.8-4.6-6.4-8.5c-0.2-0.2-0.4-0.5-0.6-0.7
		c1-0.6,2.2-1.1,3.5-1.3c4.3-0.9,9.6-2,15.4-2C837.2,468.1,838.6,468.2,839.9,468.3z"/>
</g>
<g id="black_lines">
	<path class="st0" d="M198.9,487.8c0.2,0.1,0.4,0.2,0.4,0.2"/>
	<path class="st2" d="M407.1,283.3c-8,0-14-8.6-13.4-20.8c0.6-12.5,7.6-20.8,15.1-20.8c7,0,13.7,10.5,13.3,22
		C421.6,275.3,415.3,283.3,407.1,283.3z M428.6,207c3.4-5.4,2.6-9,1-9.6c-1.6-0.6-2.2,0.4-2.9,1.7c-0.7,1.3-3.4,4.9-8.7,5.1
		c-4.9,0.1-8.5-1.7-9.8-2.7c-1.3-1-2.7-1.9-3.4-1.1c-1.1,1.3,0.5,8.2,7.5,11.5C419.1,215,425.2,212.5,428.6,207z M397.7,121.9
		c-4.9,2.3-8.9,5.8-8.2,13.3c0.6,5.9,2.7,12.7,3.2,13.7c0.5,1,0.6,1.9,3.5,1.8c3.1-0.1,3.9-0.3,5.4-0.8c3.9-1.4,5.6-3.8,5.1-6.1
		c-0.4-2.3-2.2-9.4-2.5-11.1c-0.4-2-0.9-2.3,0-3c0.9-0.7,2.4,1.4,3.2,3.4c0.8,2.1,1.2,2.4,1.9,2.6c0.7,0.2,0.5-1.1,0.6-3.4
		c0.1-2.4,0-4.5-1.9-7.5C406.2,122.2,403.1,119.4,397.7,121.9z M517.3,595.6c-0.7,0-9.6,0.2-19.3-1.9c-9.7-2.1-38.7-10.4-62.3-21
		c-21.3-9.6-35.8-19.8-41.3-24l-9.9,5.4c2.9,2,9.2,6.2,18.4,11.3c-4,6.2-13.6,20.1-23.5,28.4c-9.1,7.8-23.3,17.2-28.7,20.7
		c2.4,1.9,4.8,3.7,7.3,5.5c5.4-3.4,24.1-15.4,34.7-27.1c8.9-9.9,15.6-18.8,18.6-23c10.3,5.3,23,11.1,37.6,16.1
		c40.8,14,53.7,12.6,63,12.3c7.1-0.2,7.4-1.9,7.3-2.2C519.2,595.9,518,595.6,517.3,595.6z M389.7,308.8c-0.7,1,8,13.2,17.6,13.1
		c9.6-0.1,13.9-5.7,15.1-7.3c1.2-1.6,2.8-7.3,1.2-8.2c-1.6-0.9-2.4-0.3-5.5,2.3c-3,2.5-5.5,4.6-13.1,4.4
		C394.3,313,391.1,307,389.7,308.8z M446.9,133.9c-1.3,2.4-2.2,4.3-3.7,10.3c-1.2,4.9-3.2,11.7,6,13.1c3.1,0.5,7.7,1.3,8.5-4.5
		c0.6-4.7,1.9-12.8,2.3-13.3c0.4-0.6,0.9,1.1,1.3,3.1c0.4,1.9,0.4,3.7,1.2,3.4c0.7-0.3,0.6-6.9,0-9.8c-0.6-2.9-1-5.5-3.4-6.5
		C456.9,128.6,450.4,127.6,446.9,133.9z M651,280.1c-6.6-5-28.1-20.4-54.4-28.5c-20.2-6.2-38.3-7.2-47.6-7.8c-0.4,0-0.9-0.1-1.2-0.2
		c-2.1-15.7-10.7-35.2-16.7-44.9c-6.4-10.2-10.5-15.3-12.5-29.6c-1.9-13.3,2.5-30.8,1.3-42.8c-1-10.9-2.1-16.5-1.6-23.4
		c0.3-4.1,0.9-6,3.2-8c2.7-2.4,4.5-2.5,9.9-3.4c6.1-1,18.2-0.8,28.2-6.5c10-5.7,15.1-21.5,9.8-26.9c-7.4-7.6-21.7,3.4-28.6,1.3
		c-3.7-1.2-7.4-8.6-11.3-14.9c-3.9-6.3-5.7-24.5-28.5-26.4c-22.9-2-71.2,29.3-71.2,29.3s-36.9,5.1-51.9,22.3c-13,14.9-24,41-35.4,63
		c-10.6,20.4-30.7,34.4-39.9,45c-8.4,9.6-25,27.2-28.8,53.2c-2.7,18.6,9.1,41.5,19.8,57c-5.4,3.7-18.7,13.1-29.1,23.1
		c-9.7,9.5-15,22-23,29.7c-6.1,5.8-68.7,55-70.6,56.5c-8.3-3.9-17.3-8.3-23.6-12.2c-20.7-12.8-55.5-31.4-73.5-39.1
		c-31.7-13.6-45.4-8.2-49.2-2.3c-3.8,5.9-3.4,13.6,6.4,18.8c9.5,5,12.9,6.5,18.4,10c3.1,1.9,7,5.4,7,5.4l1.5,2.1
		c0,0-3.8,5.4-13.9,12.6c-8.4,6-27.4,14.8-25.7,24.8c0.5,2.6,2.5,5.6,4.8,7.1c5.5,3.6,14.4,4.6,21.1,4.3c11.2-0.5,19.4,0.2,20.1,2
		c0.7,1.8-2.2,7.7-9.2,13.3c-7,5.6-18.7,14.3-11,24c6.1,7.6,19.8,3,25.7,1.9c4.7-0.9,15.1-4,22.3-4.3c4,2.8,7.9,6.4,10.8,8.5
		c6.5,4.6,15.9,10.5,24.2,11.7c9,1.3,18,4.5,21.7,6.6c2.3,1.3,6.4,5.3,9.2,8.8c2.8,3.5,14.8,16.1,18.6,19.9c4,4,12.9,6.8,20.1,4.8
		c7.5-2,12.2-7.4,10.1-14.9c-1.1-3.9-3.5-9.4-5.4-14.4c2.6-0.7,24.9-7.1,38.4-14.7c13.9-7.8,34.1-22.1,43.5-26
		c5.1-2.1,12.7-4.5,19.5-6.3c0.6,0.1,1,0.2,1.2,0.5c1.1,2.1,5.7,12.5,7.1,15.4l8.3-4.5c-1.3-2.5-5.2-10.1-4.7-12.8
		c0.1-0.6,0.4-1,0.8-1.3c0.4,0,0.8-0.1,1.2-0.1c5.8-0.3,11.2-0.8,11.3-1.5c0.1-0.7-1.3-1.9-5.4-2c-4.1-0.1-30.3-1.7-55.5,13.2
		c-19.2,11.4-36.6,22-52.9,27.7c-8.9,3.1-12.9,3.6-14.3,3.7c-0.3,0-0.6,0-0.7,0c-0.1,0-0.1,0-0.2-0.1c-0.1-0.9-0.1-1.7,0.1-2.4
		c1.3-4.7,6-8,4.7-9.2c-0.6-0.6-6.3-0.7-9.2,8.7c-2.7,8.7,0.4,15,3.5,20.3c3.1,5.3,3.7,9.3,2.7,11.8c-1.9,5-11.7,7.7-22.6-1.4
		c-4.2-3.6-7.1-5.9-10.9-11.5c-5-7.4-10.2-13.6-14.2-16.9c-6.6-5.3-14.1-11.4-16.3-12.2c-2.2-0.7-4.8-0.3-2.9,1.5
		c0.6,0.5,2.1,1.9,4,3.7c-0.1,0.2-0.2,0.3-0.5,0.3c-1.6,0-12.9-0.8-27.4-10.5c-14.5-9.6-18.9-12.2-22.7-13.9
		c-3.8-1.8-6.7-3.1-7.1-2.4c-0.4,0.7-0.6,1,1.6,3.6c0.6,0.7,2,2.3,4.1,4.1c-3.9,0-10,0.3-15.1,1.6c-7.7,1.9-20.8,6.5-23.1,0.8
		c-1.7-4.3,4.7-13.2,10.3-17c5.6-3.8,10-6.9,11.3-10.6c1.3-3.7-0.7-4.1,0.4-4.3c1.2-0.1,6.4,1.5,9.3,3.9c2.9,2.5,6.9,4.6,7.3,4.5
		c0.6-0.2,1.7-0.1,1.2-1.3c-0.7-1.8-2.4-4.7-4.6-7.1c-3.8-4.3-9.6-8-23-11.2c-7.9-1.9-21,0.3-25.9,0.6c-4.8,0.3-9.6-0.5-10.8-4.8
		c-1.2-4.3,3.5-6.7,11.9-13.1c9.6-7.2,19.4-12.2,22.6-14.4c3.2-2.2,6.5-4.4,6.5-4.4s3.1,2.4,6.6,6.4c3.1,3.6,5.6,9.3,7.3,8.4
		c1.8-0.9-4-13-11.1-20.9c-7-7.9-12.7-13.7-20.2-16.6c-7.5-2.9-18.4-7.4-19.9-10.5c-0.6-1.1-1.9-3.5-0.5-5.3
		c2.6-3.3,19.1-5.6,37.2,1.5c15.1,5.9,31.8,13.6,49.9,25.9c18.1,12.3,30.3,17.8,42.5,25.2c10.4,6.4,22.1,9.7,27.8,9.8
		c5.7,0.1,10.7-0.1,7.2-2c-1.3-0.7-5.5-2.5-11-5c3.3-2.8,12.2-10.2,29.6-23.6c26.1-20.3,33.6-29.3,39.6-34.9
		c7.9-7.3,16.2-24.2,26.8-31.2c8-5.3,18.9-12.4,23.7-15.5c1.9,2.4,3.7,4.4,5.2,6c8.3,8.7,11.4,12.8,11.9,12.7
		c0.5-0.1,1.3-0.6,1.3-0.6s-14.7-23.2-21.1-32.9c-6.5-9.7-16-31.9-12.3-54c4.4-26.4,32.7-53.4,45-65.9c12.3-12.5,20-24.8,28.6-44.8
		c8.6-20,17.8-35.4,32.5-46.6c14.7-11.2,46.8-14.9,54.7-15.3c7.9-0.4,15.6,0.7,16.1,0.7c0.4,0,0.1-1.3-1.3-2.3
		c-1.5-1-6.5-2.8-11.1-3.2c-4.5-0.4-5.3-0.9-5.3-0.9s22.8-16.5,44.3-21.3c24.5-5.5,30.2,8.3,34.2,17.8c4,9.5,9.9,17.2,16.7,22.1
		c6.8,4.8,12.8,5.1,13.6,5.1c1.7,0-1-1.2-2.6-2.8c-2.1-1.9-3.5-4-3.5-4s2.6-1.5,6.5-2.2c4.3-0.7,7.1-1.3,9.4-2.6
		c2.3-1.3,4.7,3.7,3.2,7.6c-1.5,3.8-3.1,9.3-14.8,12.3c-11.9,3-20.2,0.7-28.5,2.7c-8.4,2.1-11.3,9.4-11.3,9.4s-5.2-4.6-8.3-8.7
		c-3.1-4.1-7.5-6.4-8.7-5c-0.3,0.4,0.9,2,2.8,5.5c2.6,4.7,6.3,11.7,11.4,19.4c5.1,7.7,6,14.3,3.3,38.8c-2.7,24-0.6,28.1,3.7,41
		c4.3,12.9,22.6,31.8,22.8,64.9c0.2,33.1-25.8,59-29.1,63c-3.3,4-8.6,8.6-7.6,9.4c0.6,0.5,1.6-0.5,2.7-1c1.2-0.5,12.1-6.4,24.6-22.6
		c11.1-14.4,17.6-31.9,19.2-42.6c0.6-0.2,1.3-0.4,2.2-0.4c8.8-0.5,23.7,0.3,45.5,6.2c28.1,7.5,44,18.9,48.7,22.6L651,280.1z
		 M394.9,96c-6.3,5.5-7.9,11.9-8.1,13.4c-0.4,2.6,1.5,3.5,4,3.4c2.4-0.1,2.9-0.3,3.4-3.3c0.7-4,3.6-7.7,6.2-10.5
		c4.7-5.1,6.6-4.1,7.2-6.7C407.7,91.2,401.1,90.5,394.9,96z M888,446.3c-7.6-5.8-19.8-8.3-33.3-12.4c-7.7-2.4-15.4-3.6-21.8-5.7
		c-7.6-2.4-13.4-5.5-16.2-7.1c1.8-5.3,6-11.9,11.9-17.8c15.1-15.1,34.6-27.1,38.6-30.6c7.6-6.6,9.3-10.4,6-17.8
		c-1.9-4.2-13.6-14.6-50.4,0.7c-21.1,8.8-42,19.1-56,25.7c-4-0.9-9.2-1.7-13.8-1.8c-5.7,0-11.2,0.5-16.4,1.2
		c-1.4-1.2-4.2-3.5-6.6-5.8c-3.6-3.5-4.4-5.4-4.6-6.3l-7.1,3.8c0.8,0.8,2.1,2.2,3.7,4c2.4,2.6,4,4.6,4.9,5.8c-0.2,0-0.4,0.1-0.6,0.1
		c-6.3,1-10.9,0.6-12.2,1.6c-1,0.8,5,4.4,9.2,4c4.3-0.4,15.4-3.7,21.7-4c4.8-0.2,10.9,0.6,12.3,1.7c-2.4,1-4.3,1.7-5.6,2.1
		c-8.4,2.2-12,2.5-14.5,2.9c-2.5,0.4,3.1,4,17.8,0c14.7-4,32.3-11,45.5-18.1c13.2-7,61.3-28.5,68.2-15.4c5.8,11-15.9,15.7-39.9,36.6
		c-6.3,5.5-14.4,14.3-17.4,21.2c-5.2,11.8-4.2,20.5-1.5,23.4c3.1,3.3,4.7,2.5,5.6,2.5c1,0,2.7-0.8,2.7-0.8s-2.3-2.2-3.2-4.4
		c-0.6-1.3-1-4.4-0.3-8.7c3.2,1.3,8.4,3.1,14.9,4.7c14.7,3.6,37.4,10.5,45.3,13.2c7.8,2.7,11.8,6.8,14.7,10.4
		c2.9,3.5,4.5,6.5-1,11.8c-5.8,5.7-24.6,4.5-37.5-0.1c-12.3-4.4-23.2-2.2-31.3-0.5c-6.6,1.4-10.9,6.7-9.8,8.5c0.3,0.6,1.3,0,4.5-0.8
		c1.7,2.5,4.6,6.7,6.8,9c4,4.2,16.6,15.8,21.1,20.7c5.5,6.1,5.3,11.3-0.7,13c-7.7,2.2-19.6-2.6-28.6-9.5c-9-6.8-22.4-18.6-33.9-23.9
		c-10-4.6-19.3-4-29.7-0.2c-8.7,3.2-17.2,6.2-30.1,4.7c-5.9-0.7-9.5-2.1-11.6-3.2c1.1-0.3,2.1-0.6,3-0.8c9.6-2.2,15.1-3.1,14.9-4.5
		c-0.2-1.4-7.3-3.9-15.9-1.4c-8.6,2.5-24.6,12.5-39.8,15.9c-15.3,3.3-29.7,2.3-30.1-7c-0.4-9.4,3.1-18.8,16-31.7
		c12.8-12.8,12.3-19.4,10.4-23.5c-1.3-2.9-3.3-4.6-3.9-4.4c-1.9,0.8,1,2.8,0.2,6.5c-0.3,1.3-1.2,3.2-2.4,5.5
		c-2.4-1.2-9.7-5.2-15.1-11.5c-3.9-4.4-6.6-8.4-8.2-11l-6.6,3.6c1.9,2.7,5.8,7.9,9,11.6c4.4,5.1,13.1,10.9,17,13.4
		c-1.7,2.5-3.7,5-5.5,7.1c-5.2,6-22.3,21.1-17.1,38.2c3.6,11.9,24,14.1,35.1,9.8c7.2-2.8,18.7-8,28.5-11.8
		c3.5,1.8,10.8,4.8,21.6,6.2c12.6,1.7,29.3-1.9,40.6-5.4c11.4-3.5,23,0.6,29.5,6.2c6.5,5.6,18.5,18.1,30.8,23.3
		c10.8,4.6,24,5.6,29.6-1.7c5.7-7.2-3.2-18.5-16-29.7c-7.5-6.6-10.4-11.8-11.6-15c6.9-1.3,11.1-2.6,33.9,1.4c11.7,2,21,1.4,27.7-0.3
		c7.5-1.9,11.9-5.4,13.3-11.4C897.8,456.4,894.6,451.3,888,446.3z M463.3,108.1c2.6,2.9,8.8,8.8,10.2,7.8c1.6-1.2,0.9-2,0-3.9
		c-0.9-1.9-2.8-6.8-6.1-10.8c-3.2-4-5.6-6.6-6.7-6.8c-1.1-0.3-3.7-0.1-5.7,0.7c-2.5,1.1-3.5,2.2-2.7,3.4
		C453.5,100.3,458.3,102.5,463.3,108.1z"/>
</g>
</svg>
